<svg width="30" height="30" viewBox="0 0 30 30" fill="none" xmlns="http://www.w3.org/2000/svg">
<path d="M5.53332 25.5009L3.42676 1.875H26.5736L24.4643 25.4972L14.9861 28.125L5.53332 25.5009Z" fill="#E44F26"/>
<path d="M15 26.1168L22.6594 23.9934L24.4613 3.80713H15V26.1168Z" fill="#F1662A"/>
<path d="M15 12.5691H11.1656L10.9013 9.60191H15V6.7041H7.73438L7.80375 7.48223L8.51531 15.4669H15V12.5691ZM15 20.0944L14.9869 20.0982L11.76 19.2272L11.5538 16.9163H8.64469L9.05063 21.465L14.9869 23.1132L15 23.1094V20.0944Z" fill="#EBEBEB"/>
<path d="M14.9893 12.5691V15.4669H18.5574L18.2218 19.2254L14.9893 20.0972V23.1122L20.9302 21.465L20.9733 20.9757L21.6539 13.3472L21.7252 12.5691H14.9893ZM14.9893 6.7041V9.60191H21.9886L22.0468 8.95129L22.1789 7.48223L22.2483 6.7041H14.9893Z" fill="white"/>
</svg>
