<svg width="30" height="30" viewBox="0 0 30 30" fill="none" xmlns="http://www.w3.org/2000/svg">
<path d="M0 0H30V30H0V0Z" fill="#F7DF1E"/>
<path d="M7.88781 25.0703L10.1835 23.6809C10.6265 24.4662 11.0294 25.1306 11.9958 25.1306C12.9222 25.1306 13.5064 24.7683 13.5064 23.3588V13.7731H16.3255V23.3986C16.3255 26.3186 14.6139 27.6477 12.1166 27.6477C9.86137 27.6477 8.55227 26.4797 7.8877 25.0701L7.88781 25.0703ZM17.8568 24.7682L20.1523 23.4392C20.7566 24.426 21.542 25.1509 22.9314 25.1509C24.0996 25.1509 24.8445 24.5669 24.8445 23.7613C24.8445 22.7947 24.0793 22.4523 22.7904 21.8887L22.0858 21.5863C20.0518 20.7206 18.7026 19.6331 18.7026 17.3374C18.7026 15.2229 20.3136 13.6118 22.8309 13.6118C24.6231 13.6118 25.9119 14.2362 26.8382 15.8673L24.643 17.2771C24.1596 16.4112 23.6363 16.0689 22.8307 16.0689C22.005 16.0689 21.4814 16.5925 21.4814 17.2771C21.4814 18.1228 22.005 18.4654 23.2132 18.989L23.918 19.291C26.3145 20.3181 27.6637 21.3652 27.6637 23.7211C27.6637 26.2587 25.6701 27.6481 22.9918 27.6481C20.3739 27.6481 18.6823 26.3996 17.8567 24.7683" fill="black"/>
</svg>
