<svg width="30" height="30" viewBox="0 0 30 30" fill="none" xmlns="http://www.w3.org/2000/svg">
<path d="M5.53336 25.5009L3.42773 1.875H26.5727L24.4643 25.4972L14.9862 28.125L5.53336 25.5009Z" fill="#1572B6"/>
<path d="M15 26.1168L22.6594 23.9934L24.4613 3.80713H15V26.1168Z" fill="#33A9DC"/>
<path d="M15 12.3665H18.8344L19.0987 9.39928H15V6.50146H22.2656L22.1963 7.27865L21.4847 15.2643H15V12.3665Z" fill="white"/>
<path d="M15.0174 19.892L15.0043 19.8957L11.7774 19.0238L11.5712 16.7129H8.66211L9.06805 21.2626L15.0034 22.9107L15.0174 22.907V19.892Z" fill="#EBEBEB"/>
<path d="M18.5881 15.1416L18.2394 19.0219L15.0078 19.8938V22.9088L20.9478 21.2625L20.9919 20.7732L21.4953 15.1416H18.5881Z" fill="white"/>
<path d="M15.01 6.50146V9.39928H8.01066L7.95254 8.74772L7.82035 7.27865L7.75098 6.50146H15.01ZM14.9997 12.3665V15.2643H11.8132L11.755 14.6127L11.6238 13.1437L11.5544 12.3665H14.9997Z" fill="#EBEBEB"/>
</svg>
