<svg width="180" height="180" viewBox="0 0 180 180" fill="none" xmlns="http://www.w3.org/2000/svg">
<path d="M90.0002 41.2343C62.3894 41.2343 40 63.6197 40 91.2344C40 113.326 54.3266 132.068 74.1933 138.68C76.692 139.143 77.6097 137.595 77.6097 136.274C77.6097 135.082 77.563 131.143 77.5418 126.965C63.6313 129.99 60.6961 121.066 60.6961 121.066C58.4217 115.287 55.1446 113.75 55.1446 113.75C50.6083 110.647 55.4865 110.71 55.4865 110.71C60.5075 111.063 63.1513 115.863 63.1513 115.863C67.6108 123.507 74.8482 121.297 77.7014 120.02C78.15 116.788 79.4461 114.582 80.8758 113.334C69.7703 112.069 58.0954 107.782 58.0954 88.6232C58.0954 83.1645 60.0487 78.7039 63.2474 75.2025C62.7282 73.9429 61.0169 68.8576 63.7317 61.9704C63.7317 61.9704 67.9304 60.6265 77.4853 67.0957C81.4734 65.9875 85.7509 65.4322 90.0002 65.4134C94.2495 65.4322 98.5301 65.9875 102.526 67.0957C112.07 60.6265 116.262 61.9704 116.262 61.9704C118.984 68.8576 117.272 73.9429 116.753 75.2025C119.958 78.7039 121.898 83.1641 121.898 88.6232C121.898 107.827 110.201 112.056 99.0677 113.294C100.861 114.845 102.459 117.888 102.459 122.553C102.459 129.243 102.401 134.627 102.401 136.274C102.401 137.605 103.301 139.164 105.836 138.673C125.691 132.054 140 113.319 140 91.2344C140 63.6197 117.614 41.2343 90.0002 41.2343Z" fill="#161614"/>
<path d="M58.7266 112.461C58.6168 112.709 58.2255 112.784 57.8698 112.613C57.5071 112.45 57.3032 112.111 57.4208 111.862C57.5286 111.606 57.92 111.535 58.282 111.707C58.6455 111.869 58.8525 112.211 58.7266 112.461V112.461ZM61.1862 114.655C60.9477 114.876 60.4815 114.774 60.165 114.424C59.838 114.076 59.7768 113.61 60.0188 113.385C60.2646 113.164 60.7168 113.267 61.0446 113.616C61.3717 113.969 61.4352 114.432 61.1858 114.656L61.1862 114.655ZM62.8736 117.463C62.5669 117.676 62.0657 117.476 61.7563 117.032C61.4501 116.587 61.4501 116.054 61.763 115.84C62.0736 115.627 62.5669 115.819 62.8806 116.26C63.1865 116.712 63.1865 117.245 62.8732 117.463L62.8736 117.463ZM65.7268 120.715C65.4527 121.017 64.8692 120.936 64.4417 120.524C64.0049 120.121 63.8829 119.548 64.1578 119.246C64.4351 118.943 65.0221 119.028 65.4527 119.437C65.8868 119.84 66.0193 120.416 65.7272 120.715H65.7268ZM69.4145 121.813C69.2941 122.204 68.7318 122.382 68.1655 122.216C67.6001 122.045 67.2299 121.586 67.344 121.19C67.4616 120.796 68.0263 120.611 68.5969 120.789C69.1616 120.959 69.5326 121.415 69.4149 121.813H69.4145ZM73.612 122.278C73.6261 122.691 73.1458 123.033 72.5513 123.04C71.9533 123.053 71.4697 122.72 71.4635 122.314C71.4635 121.898 71.9329 121.559 72.5305 121.549C73.125 121.537 73.612 121.869 73.612 122.278V122.278ZM77.735 122.12C77.8064 122.523 77.3931 122.936 76.8029 123.046C76.2225 123.152 75.6853 122.904 75.6112 122.505C75.539 122.092 75.9602 121.679 76.5394 121.572C77.1307 121.469 77.6597 121.711 77.735 122.12" fill="#161614"/>
</svg>
