<svg width="101" height="87" viewBox="0 0 101 87" fill="none" xmlns="http://www.w3.org/2000/svg">
<path d="M96.3954 66.5576C91.0587 69.3392 63.4134 80.706 57.5278 83.7744C51.6423 86.8431 48.3727 86.8134 43.7231 84.5908C39.0739 82.3681 9.65437 70.4845 4.35476 67.9513C1.70632 66.6857 0.313354 65.617 0.313354 64.6076V54.4998C0.313354 54.4998 38.6141 46.1619 44.7973 43.9435C50.9802 41.7252 53.1255 41.6451 58.3872 43.5724C63.6497 45.5006 95.113 51.1771 100.313 53.0818L100.311 63.0466C100.312 64.0459 99.1118 65.142 96.3954 66.5576Z" fill="#912626"/>
<path d="M96.3935 56.5096C91.0571 59.29 63.4126 70.6572 57.5271 73.7252C51.6419 76.7943 48.3724 76.7642 43.7232 74.5416C39.0735 72.3205 9.65519 60.4349 4.35597 57.9033C-0.943252 55.3701 -1.05419 53.6267 4.15128 51.5885C9.35675 49.5494 38.6138 38.0709 44.7978 35.8526C50.9806 33.635 53.1255 33.5541 58.3872 35.4822C63.6493 37.4096 91.129 48.3475 96.3286 50.2517C101.53 52.1584 101.73 53.7283 96.3935 56.5096Z" fill="#C6302B"/>
<path d="M96.3954 50.2025C91.0587 52.9845 63.4134 64.3509 57.5278 67.4205C51.6423 70.488 48.3727 70.4583 43.7231 68.2357C39.0735 66.0142 9.65437 54.1294 4.35476 51.5962C1.70632 50.3306 0.313354 49.2634 0.313354 48.2537V38.1447C0.313354 38.1447 38.6141 29.8072 44.7973 27.5888C50.9802 25.3705 53.1255 25.29 58.3872 27.2177C63.6501 29.1455 95.1134 34.8208 100.313 36.7259L100.311 46.6919C100.312 47.6908 99.1118 48.7869 96.3954 50.2025Z" fill="#912626"/>
<path d="M96.3935 40.1544C91.0571 42.9357 63.4126 54.3021 57.5271 57.3712C51.6419 60.4392 48.3724 60.4091 43.7232 58.1864C39.0735 55.9653 9.65519 44.0802 4.35597 41.5482C-0.943252 39.0157 -1.05419 37.272 4.15128 35.2329C9.35675 33.195 38.6142 21.7157 44.7978 19.4978C50.9806 17.2798 53.1255 17.1993 58.3872 19.1271C63.6493 21.0544 91.129 31.9915 96.3286 33.8966C101.53 35.8028 101.73 37.3732 96.3935 40.1544Z" fill="#C6302B"/>
<path d="M96.3954 33.2412C91.0587 36.0224 63.4134 47.3896 57.5278 50.4592C51.6423 53.5271 48.3727 53.497 43.7231 51.2744C39.0735 49.0529 9.65437 37.1677 4.35476 34.6357C1.70632 33.3689 0.313354 32.3013 0.313354 31.2927V21.1833C0.313354 21.1833 38.6141 12.8462 44.7973 10.6282C50.9802 8.40948 53.1255 8.32979 58.3872 10.2571C63.6501 12.1849 95.1134 17.8603 100.313 19.7654L100.311 29.731C100.312 30.729 99.1118 31.8251 96.3954 33.2412Z" fill="#912626"/>
<path d="M96.3934 23.1931C91.0571 25.9744 63.4125 37.3416 57.527 40.4096C51.6418 43.4775 48.3723 43.4475 43.7231 41.226C39.0739 39.0033 9.65511 27.1189 4.35628 24.5865C-0.943325 22.0545 -1.05387 20.3103 4.15121 18.2717C9.35667 16.2334 38.6141 4.75563 44.7977 2.53688C50.9805 0.318522 53.1254 0.238834 58.3871 2.16657C63.6493 4.09431 91.1289 15.0314 96.3285 16.9365C101.53 18.8412 101.73 20.4119 96.3934 23.1931Z" fill="#C6302B"/>
<path d="M62.5333 13.36L53.9356 14.2526L52.011 18.8838L48.9024 13.7158L38.9747 12.8236L46.3825 10.1522L44.1598 6.05139L51.0954 8.76389L57.6337 6.62327L55.8665 10.8635L62.5333 13.36ZM51.4977 35.8279L35.452 29.1728L58.4443 25.6436L51.4977 35.8279ZM29.2516 15.9342C36.0387 15.9342 41.5407 18.067 41.5407 20.6975C41.5407 23.3287 36.0387 25.4611 29.2516 25.4611C22.4645 25.4611 16.9625 23.3283 16.9625 20.6975C16.9625 18.067 22.4645 15.9342 29.2516 15.9342Z" fill="white"/>
<path d="M72.6942 14.626L86.3021 20.0034L72.7059 25.3756L72.6942 14.6256" fill="#621B1C"/>
<path d="M57.6395 20.5811L72.6942 14.626L72.7059 25.3756L71.2298 25.953L57.6395 20.5811Z" fill="#9A2928"/>
</svg>
